HIERARCHY
ROOT hip
{
  OFFSET 0 0 0
  CHANNELS 6 Xposition Yposition Zposition Zrotation Yrotation Xrotation
  JOINT abdomen
  {
    OFFSET 0 20.6881 -0.73152
    CHANNELS 3 Zrotation Xrotation Yrotation
    JOINT chest
    {
      OFFSET 0 11.7043 -0.48768
      CHANNELS 3 Zrotation Xrotation Yrotation
      JOINT neck
      {
        OFFSET 0 22.1894 -2.19456
        CHANNELS 3 Zrotation Xrotation Yrotation
        JOINT head
        {
          OFFSET -0.24384 7.07133 1.2192
          CHANNELS 3 Zrotation Xrotation Yrotation
          JOINT leftEye
          {
            OFFSET 4.14528 8.04674 8.04672
            CHANNELS 3 Zrotation Xrotation Yrotation
            End Site
            {
              OFFSET 1 0 0
            }
          }
          JOINT rightEye
          {
            OFFSET -3.6576 8.04674 8.04672
            CHANNELS 3 Zrotation Xrotation Yrotation
            End Site
            {
              OFFSET 1 0 0
            }
          }
        }
      }
      JOINT rCollar
      {
        OFFSET -2.68224 19.2634 -4.8768
        CHANNELS 3 Zrotation Xrotation Yrotation
        JOINT rShldr
        {
          OFFSET -8.77824 -1.95073 1.46304
          CHANNELS 3 Zrotation Xrotation Yrotation
          JOINT rForeArm
          {
            OFFSET -28.1742 -1.7115 0.48768
            CHANNELS 3 Zrotation Xrotation Yrotation
            JOINT rHand
            {
              OFFSET -22.5879 0.773209 7.07136
              CHANNELS 3 Zrotation Xrotation Yrotation
              JOINT rThumb1
              {
                OFFSET -1.2192 -0.487915 3.41376
                CHANNELS 3 Zrotation Xrotation Yrotation
                JOINT rThumb2
                {
                  OFFSET -3.37035 -0.52449 3.41376
                  CHANNELS 3 Zrotation Xrotation Yrotation
                  End Site
                  {
                    OFFSET -1.78271 -1.18214 1.43049
                  }
                }
              }
              JOINT rIndex1
              {
                OFFSET -7.75947 0.938293 5.60832
                CHANNELS 3 Zrotation Xrotation Yrotation
                JOINT rIndex2
                {
                  OFFSET -2.54057 -0.884171 1.56538
                  CHANNELS 3 Zrotation Xrotation Yrotation
                  End Site
                  {
                    OFFSET -1.62519 -0.234802 1.16502
                  }
                }
              }
              JOINT rMid1
              {
                OFFSET -8.24714 1.18213 3.41376
                CHANNELS 3 Zrotation Xrotation Yrotation
                JOINT rMid2
                {
                  OFFSET -3.10165 -0.590103 1.0647
                  CHANNELS 3 Zrotation Xrotation Yrotation
                  End Site
                  {
                    OFFSET -2.48547 -0.328903 0.83742
                  }
                }
              }
              JOINT rRing1
              {
                OFFSET -8.82822 0.546677 1.51678
                CHANNELS 3 Zrotation Xrotation Yrotation
                JOINT rRing2
                {
                  OFFSET -2.60934 -0.819778 -0.0198488
                  CHANNELS 3 Zrotation Xrotation Yrotation
                  End Site
                  {
                    OFFSET -2.33842 -0.294052 0.168128
                  }
                }
              }
              JOINT rPinky1
              {
                OFFSET -8.27202 -0.0477905 -0.4584
                CHANNELS 3 Zrotation Xrotation Yrotation
                JOINT rPinky2
                {
                  OFFSET -1.82734 -0.647385 -0.700984
                  CHANNELS 3 Zrotation Xrotation Yrotation
                  End Site
                  {
                    OFFSET -1.69225 -0.51767 -0.607171
                  }
                }
              }
            }
          }
        }
      }
      JOINT lCollar
      {
        OFFSET 2.68224 19.2634 -4.8768
        CHANNELS 3 Zrotation Xrotation Yrotation
        JOINT lShldr
        {
          OFFSET 8.77824 -1.95073 1.46304
          CHANNELS 3 Zrotation Xrotation Yrotation
          JOINT lForeArm
          {
            OFFSET 28.1742 -1.7115 0.48768
            CHANNELS 3 Zrotation Xrotation Yrotation
            JOINT lHand
            {
              OFFSET 22.5879 0.773209 7.07136
              CHANNELS 3 Zrotation Xrotation Yrotation
              JOINT lThumb1
              {
                OFFSET 1.2192 -0.487915 3.41376
                CHANNELS 3 Zrotation Xrotation Yrotation
                JOINT lThumb2
                {
                  OFFSET 3.37035 -0.52449 3.41376
                  CHANNELS 3 Zrotation Xrotation Yrotation
                  End Site
                  {
                    OFFSET 1.78271 -1.18214 1.43049
                  }
                }
              }
              JOINT lIndex1
              {
                OFFSET 7.75947 0.938293 5.60832
                CHANNELS 3 Zrotation Xrotation Yrotation
                JOINT lIndex2
                {
                  OFFSET 2.54057 -0.884171 1.56538
                  CHANNELS 3 Zrotation Xrotation Yrotation
                  End Site
                  {
                    OFFSET 1.62519 -0.234802 1.16502
                  }
                }
              }
              JOINT lMid1
              {
                OFFSET 8.24714 1.18213 3.41376
                CHANNELS 3 Zrotation Xrotation Yrotation
                JOINT lMid2
                {
                  OFFSET 3.10165 -0.590103 1.0647
                  CHANNELS 3 Zrotation Xrotation Yrotation
                  End Site
                  {
                    OFFSET 2.48547 -0.328903 0.83742
                  }
                }
              }
              JOINT lRing1
              {
                OFFSET 8.82822 0.546677 1.51678
                CHANNELS 3 Zrotation Xrotation Yrotation
                JOINT lRing2
                {
                  OFFSET 2.60934 -0.819778 -0.0198488
                  CHANNELS 3 Zrotation Xrotation Yrotation
                  End Site
                  {
                    OFFSET 2.33842 -0.294052 0.168128
                  }
                }
              }
              JOINT lPinky1
              {
                OFFSET 8.27202 -0.0477905 -0.4584
                CHANNELS 3 Zrotation Xrotation Yrotation
                JOINT lPinky2
                {
                  OFFSET 1.82734 -0.647385 -0.700984
                  CHANNELS 3 Zrotation Xrotation Yrotation
                  End Site
                  {
                    OFFSET 1.69225 -0.51767 -0.607171
                  }
                }
              }
            }
          }
        }
      }
    }
  }
  JOINT rButtock
  {
    OFFSET -8.77824 4.35084 1.2192
    CHANNELS 3 Zrotation Xrotation Yrotation
    JOINT rThigh
    {
      OFFSET 0 -1.70687 -2.19456
      CHANNELS 3 Zrotation Xrotation Yrotation
      JOINT rShin
      {
        OFFSET 0 -36.8199 0.73152
        CHANNELS 3 Zrotation Xrotation Yrotation
        JOINT rFoot
        {
          OFFSET 0.73152 -45.1104 -5.12064
          CHANNELS 3 Zrotation Xrotation Yrotation
          End Site
          {
            OFFSET -1.1221 -3.69964 12.103
          }
        }
      }
    }
  }
  JOINT lButtock
  {
    OFFSET 8.77824 4.35084 1.2192
    CHANNELS 3 Zrotation Xrotation Yrotation
    JOINT lThigh
    {
      OFFSET 0 -1.70687 -2.19456
      CHANNELS 3 Zrotation Xrotation Yrotation
      JOINT lShin
      {
        OFFSET 0 -36.8199 0.73152
        CHANNELS 3 Zrotation Xrotation Yrotation
        JOINT lFoot
        {
          OFFSET -0.73152 -45.1104 -5.12064
          CHANNELS 3 Zrotation Xrotation Yrotation
          End Site
          {
            OFFSET 1.1221 -3.69964 12.103
          }
        }
      }
    }
  }
}
MOTION
Frames:	5
Frame Time:	0.00833333
3.8946 82.4855 55.3963 0.0 0.0 0.0 -4.35902 0.00629497 -0.117464 -1.20167 0.0324814 -0.207695 -7.51157e-14 -7.95139e-16 -8.44835e-16 -2.23785e-13 3.18055e-15 -2.58575e-15 -0.0 0.0 0.0 -0.0 0.0 0.0 -3.69781e-14 -2.7527e-16 -2.98177e-16 -7.79787e-13 -6.24929e-15 -1.07344e-14 -1.34191e-11 3.83615e-12 -3.18055e-14 -1.53854e-10 -5.10377e-12 -2.00693e-12 -3.62849e-10 -2.74737e-12 -4.3828e-12 -6.26622e-10 -4.74221e-12 -7.55779e-12 -3.62843e-10 -2.748e-12 -4.38599e-12 7.73091 5.47488 0.417314 -3.6285e-10 -2.7477e-12 -4.3828e-12 2.90554 0.965183 0.102902 -3.62841e-10 -2.7475e-12 -4.38519e-12 10.2786 0.731801 0.0259123 -3.62856e-10 -2.74482e-12 -4.37962e-12 2.22167 -0.733487 -0.20892 -3.69723e-14 -2.71194e-16 -4.96962e-16 -7.84311e-13 -5.75854e-15 -1.27222e-14 -1.34715e-11 -4.21523e-12 -5.725e-14 -1.53833e-10 2.97362e-12 -1.98785e-12 -3.629e-10 -2.69325e-12 -4.39553e-12 -6.26704e-10 -4.65633e-12 -7.56733e-12 -3.62907e-10 -2.69035e-12 -4.38599e-12 -7.73091 5.47488 -0.417314 -3.62902e-10 -2.69333e-12 -4.39871e-12 -2.90554 0.965183 -0.102902 -3.6291e-10 -2.69284e-12 -4.39155e-12 -10.2786 0.731801 -0.0259123 -3.62899e-10 -2.69313e-12 -4.39553e-12 -2.22167 -0.733487 0.20892 -2.03217e-16 0.0 -3.88251e-19 -2.89108 -1.94436 0.0304638 -0.007952 -2.07874 -0.0649105 -0.419369 4.00218 0.126689 2.03217e-16 0.0 3.88251e-19 -3.7253 -11.2507 0.483792 -0.0143132 14.7726 -0.388798 0.544754 -3.54244 0.0125167
1.49476 82.2558 53.3718 -9.927 -1.638 8.8916 -2.07593 -2.52821 0.967619 -1.95975 -2.59285 -0.0374607 -2.16547 3.02534 -3.35918 5.25675 -1.38997 -6.36882 -0.0 0.0 0.0 -0.0 0.0 0.0 -6.70076e-14 2.84965e-14 1.88236e-14 23.4477 -3.49742 -3.82993 -3.40998 -1.41711 5.46107 0.30492 12.3041 1.58878 -1.37805e-11 -3.20202e-10 4.46065e-10 -8.07446e-12 -5.62041e-10 7.59921e-10 -1.37751e-11 -3.20202e-10 4.46058e-10 7.73091 5.47488 0.417314 -1.37814e-11 -3.20203e-10 4.46064e-10 2.90554 0.965183 0.102902 -1.37728e-11 -3.20203e-10 4.46062e-10 10.2786 0.731801 0.0259123 -1.37856e-11 -3.20201e-10 4.46067e-10 2.22167 -0.733487 -0.20892 -6.70775e-14 2.8505e-14 1.8626e-14 -22.8609 -5.24507 2.93641 3.31571 -1.36274 -5.32449 -0.100927 7.0588 -0.965093 2.03256e-11 -8.1927e-11 2.9073e-10 4.10217e-11 -1.38212e-10 4.95612e-10 2.03205e-11 -8.19234e-11 2.90742e-10 -7.73091 5.47488 -0.417314 2.03247e-11 -8.19269e-11 2.90725e-10 -2.90554 0.965183 -0.102902 2.03163e-11 -8.1926e-11 2.90732e-10 -10.2786 0.731801 -0.0259123 2.03273e-11 -8.19268e-11 2.90728e-10 -2.22167 -0.733487 0.20892 -2.03217e-16 0.0 -3.88251e-19 -0.926771 -2.75768 7.13638 0.00477589 -1.92135 0.0349043 -0.903705 1.34132 -7.27345 2.03217e-16 0.0 3.88251e-19 -3.24208 -10.0906 -12.5541 -0.00277071 14.1092 -0.196511 1.81314 -10.9442 15.2057
1.50375 82.2548 53.3741 -9.8832 -1.6327 8.8815 0.45416 -5.18421 2.12948 -2.75611 -5.37755 0.14413 -4.05244 6.189 -6.94421 10.4723 -2.80648 -13.1204 -0.0 0.0 0.0 -0.0 0.0 0.0 -1.04829e-13 5.81172e-14 4.19218e-14 47.7365 -7.15252 -7.93213 -6.72795 -2.87562 11.2536 -0.186186 25.2998 3.53479 3.81266e-10 -6.87833e-10 9.65603e-10 6.92266e-10 -1.20756e-09 1.64495e-09 3.81271e-10 -6.87833e-10 9.65592e-10 7.73091 5.47488 0.417314 3.81265e-10 -6.87835e-10 9.65601e-10 2.90554 0.965183 0.102902 3.81273e-10 -6.87834e-10 9.65599e-10 10.2786 0.731801 0.0259123 3.81263e-10 -6.87834e-10 9.65602e-10 2.22167 -0.733487 -0.20892 -1.0498e-13 5.81305e-14 4.17261e-14 -46.4246 -10.7474 6.12249 6.5453 -2.76322 -10.9605 0.0588532 14.5329 -2.03788 4.60033e-10 -1.69527e-10 6.40943e-10 8.0737e-10 -2.85525e-10 1.09289e-09 4.60029e-10 -1.69523e-10 6.40956e-10 -7.73091 5.47488 -0.417314 4.60033e-10 -1.69527e-10 6.40936e-10 -2.90554 0.965183 -0.102902 4.60024e-10 -1.69525e-10 6.40942e-10 -10.2786 0.731801 -0.0259123 4.60035e-10 -1.69527e-10 6.40939e-10 -2.22167 -0.733487 0.20892 -2.03217e-16 0.0 -3.88251e-19 1.37997 -3.52955 14.6751 0.0176318 -1.75685 0.140187 -2.15536 -1.39814 -15.1089 2.03217e-16 0.0 3.88251e-19 -2.14944 -8.39995 -26.2105 0.0142983 13.4054 0.00488427 7.35162 -16.7284 32.1901
1.50991 82.2537 53.3779 -9.8512 -1.6425 8.8672 2.78021 -7.58686 3.16267 -3.42884 -7.84341 0.305985 -5.42718 8.95059 -10.1889 14.8605 -3.96442 -19.1484 -0.0 0.0 0.0 -0.0 0.0 0.0 -1.27067e-13 8.60401e-14 5.70671e-14 68.9313 -10.3034 -11.6589 -9.43003 -4.0971 16.4213 -1.56085 36.784 5.81809 6.84357e-10 -9.55111e-10 1.34696e-09 1.22902e-09 -1.67664e-09 2.29488e-09 6.84361e-10 -9.5511e-10 1.34695e-09 7.73091 5.47488 0.417314 6.84355e-10 -9.55114e-10 1.34696e-09 2.90554 0.965183 0.102902 6.84364e-10 -9.55113e-10 1.34696e-09 10.2786 0.731801 0.0259123 6.84356e-10 -9.55113e-10 1.34696e-09 2.22167 -0.733487 -0.20892 -1.27288e-13 8.60573e-14 5.68718e-14 -66.9248 -15.5668 9.10915 9.19671 -3.94724 -16.0079 0.454088 21.1515 -3.08109 7.86777e-10 -2.40394e-10 8.80982e-10 1.37647e-09 -4.05322e-10 1.50197e-09 7.86775e-10 -2.4039e-10 8.80997e-10 -7.73091 5.47488 -0.417314 7.86779e-10 -2.40394e-10 8.80973e-10 -2.90554 0.965183 -0.102902 7.86769e-10 -2.40392e-10 8.80979e-10 -10.2786 0.731801 -0.0259123 7.86781e-10 -2.40394e-10 8.80976e-10 -2.22167 -0.733487 0.20892 -2.03217e-16 0.0 -3.88251e-19 3.5891 -4.14372 21.382 0.0285859 -1.60655 0.234482 -3.88878 -3.6582 -22.1145 2.03217e-16 0.0 3.88251e-19 -0.640385 -6.68336 -38.3265 0.0340112 12.782 0.184721 15.1491 -18.7504 48.0202
1.51316 82.2548 53.3849 -9.8372 -1.6392 8.8372 4.39118 -9.36632 3.85082 -3.82653 -9.5123 0.415231 -6.27913 10.827 -12.4763 17.8206 -4.67415 -23.3269 -0.0 0.0 0.0 -0.0 0.0 0.0 -1.10347e-13 1.09719e-13 5.23301e-14 83.4005 -12.3763 -14.2831 -11.1572 -4.87483 19.9901 -3.27338 44.6089 7.96887 7.57559e-10 -9.71507e-10 1.38287e-09 1.35681e-09 -1.70464e-09 2.35702e-09 7.57563e-10 -9.71506e-10 1.38285e-09 7.73091 5.47488 0.417314 7.57557e-10 -9.7151e-10 1.38287e-09 2.90554 0.965183 0.102902 7.57566e-10 -9.7151e-10 1.38287e-09 10.2786 0.731801 0.0259123 7.57559e-10 -9.7151e-10 1.38287e-09 2.22167 -0.733487 -0.20892 -1.10609e-13 1.09738e-13 5.21313e-14 -80.9539 -18.8393 11.3109 10.9268 -4.72387 -19.5513 0.881671 25.6555 -3.87061 8.31114e-10 -2.6943e-10 8.45589e-10 1.45247e-09 -4.5633e-10 1.44056e-09 8.31113e-10 -2.69425e-10 8.45605e-10 -7.73091 5.47488 -0.417314 8.31116e-10 -2.69429e-10 8.45579e-10 -2.90554 0.965183 -0.102902 8.31106e-10 -2.69428e-10 8.45585e-10 -10.2786 0.731801 -0.0259123 8.31118e-10 -2.6943e-10 8.45582e-10 -2.22167 -0.733487 0.20892 -2.03217e-16 0.0 -3.88251e-19 5.16328 -4.56711 25.9838 0.0359091 -1.49175 0.301338 -5.4155 -5.0796 -26.969 2.03217e-16 0.0 3.88251e-19 0.659255 -5.48192 -46.8078 0.050702 12.3599 0.312932 21.4435 -17.9328 58.9456
